<svg xmlns="http://www.w3.org/2000/svg" viewBox="0 0 1040 220" role="img" aria-label="LANDO logo">
  <style>
    .w{fill:#f0f0f5}
    .a{stroke:#6c5ce7; fill:none; stroke-linecap:round; stroke-linejoin:round}
  </style>

  <!-- L -->
  <path class="w" d="M80 40h40v130h90v30H80z"/>
  <!-- A (Wi-Fi) -->
  <path class="a" d="M270 170h120" stroke-width="18"/>
  <path class="a" d="M290 170L330 70" stroke-width="18"/>
  <path class="a" d="M370 70L410 170" stroke-width="18"/>
  <path class="a" d="M300 140c30-30 80-30 110 0" stroke-width="14"/>
  <path class="a" d="M320 150c20-20 60-20 80 0" stroke-width="12"/>
  <path class="a" d="M345 160c10-10 30-10 40 0" stroke-width="10"/>

  <!-- N -->
  <path class="w" d="M470 200V40h35l80 110V40h35v160h-35l-80-110v110z"/>
  <!-- D -->
  <path class="w" d="M660 40h70c55 0 90 32 90 80s-35 80-90 80h-70zM700 70v100h30c33 0 55-20 55-50s-22-50-55-50z"/>
  <!-- O -->
  <path class="w" d="M840 120c0-50 35-85 85-85s85 35 85 85-35 85-85 85-85-35-85-85zm40 0c0 30 18 52 45 52s45-22 45-52-18-52-45-52-45 22-45 52z"/>
</svg>
